<?xml version="1.0" encoding="UTF-8" standalone="no"?>
<!-- Created with Inkscape (http://www.inkscape.org/) -->

<svg
   width="121.056"
   height="137.11501"
   viewBox="0 0 32.029784 36.278758"
   version="1.1"
   id="svg5"
   xml:space="preserve"
   sodipodi:docname="logoTT.svg"
   inkscape:version="1.2 (dc2aedaf03, 2022-05-15)"
   xmlns:inkscape="http://www.inkscape.org/namespaces/inkscape"
   xmlns:sodipodi="http://sodipodi.sourceforge.net/DTD/sodipodi-0.dtd"
   xmlns="http://www.w3.org/2000/svg"
   xmlns:svg="http://www.w3.org/2000/svg"><sodipodi:namedview
     id="namedview7"
     pagecolor="#505050"
     bordercolor="#eeeeee"
     borderopacity="1"
     inkscape:showpageshadow="0"
     inkscape:pageopacity="0"
     inkscape:pagecheckerboard="0"
     inkscape:deskcolor="#505050"
     inkscape:document-units="mm"
     showgrid="false"
     inkscape:zoom="4.0773542"
     inkscape:cx="61.436899"
     inkscape:cy="70.266154"
     inkscape:window-width="1920"
     inkscape:window-height="1001"
     inkscape:window-x="-9"
     inkscape:window-y="-9"
     inkscape:window-maximized="1"
     inkscape:current-layer="layer2" /><defs
     id="defs2"><inkscape:path-effect
       effect="fillet_chamfer"
       id="path-effect354"
       is_visible="true"
       lpeversion="1"
       nodesatellites_param="F,0,1,1,0,0.79375,0,1 @ F,0,0,1,0,0,0,1 @ F,0,0,1,0,0.79375,0,1 @ F,0,0,1,0,0.79375,0,1 @ F,0,0,1,0,0.79375,0,1 @ F,0,0,1,0,0.79375,0,1 @ F,0,0,1,0,0,0,1 @ F,0,1,1,0,0.79375,0,1"
       unit="px"
       method="auto"
       mode="F"
       radius="3"
       chamfer_steps="1"
       flexible="false"
       use_knot_distance="true"
       apply_no_radius="true"
       apply_with_radius="true"
       only_selected="true"
       hide_knots="false" /><inkscape:path-effect
       effect="fillet_chamfer"
       id="path-effect352"
       is_visible="true"
       lpeversion="1"
       nodesatellites_param="F,0,0,1,0,0.79375,0,1 @ F,0,0,1,0,0,0,1 @ F,0,0,1,0,0.79375,0,1 @ F,0,0,1,0,0.79375,0,1 @ F,0,1,1,0,0.79375,0,1 @ F,0,1,1,0,0.79375,0,1 @ F,0,0,1,0,0,0,1 @ F,0,0,1,0,0.79375,0,1"
       unit="px"
       method="auto"
       mode="F"
       radius="3"
       chamfer_steps="1"
       flexible="false"
       use_knot_distance="true"
       apply_no_radius="true"
       apply_with_radius="true"
       only_selected="true"
       hide_knots="false" /><inkscape:path-effect
       effect="fillet_chamfer"
       id="path-effect740"
       is_visible="true"
       lpeversion="1"
       nodesatellites_param="F,0,0,1,0,0,0,2 @ F,0,0,1,0,0,0,2 @ F,0,0,1,0,0,0,2 @ F,0,0,1,0,0,0,2 @ F,0,0,1,0,0,0,2 @ F,0,0,1,0,0.89958333,0,2 @ F,0,0,1,0,0.89958333,0,2 @ F,0,0,1,0,0.89958333,0,2 @ F,0,0,1,0,0,0,2 @ F,0,0,1,0,0,0,2 @ F,0,0,1,0,0,0,2 @ F,0,1,1,0,0.84666667,0,2 @ F,0,1,1,0,0.84666667,0,2 @ F,0,1,1,0,0.84666667,0,2 @ F,0,0,1,0,0,0,2 @ F,0,0,1,0,0,0,2 @ F,0,0,1,0,0,0,2 @ F,0,0,1,0,0,0,2 @ F,0,1,1,0,0.84666667,0,2 @ F,0,1,1,0,0.84666667,0,2 @ F,0,1,1,0,0.84666667,0,2 @ F,0,1,1,0,0.84666667,0,2 @ F,0,0,1,0,0,0,2 @ F,0,0,1,0,0.84666667,0,2 @ F,0,0,1,0,0.84666667,0,2 @ F,0,0,1,0,0.84666667,0,2 @ F,0,0,1,0,0,0,2 @ F,0,0,1,0,0,0,2 @ F,0,0,1,0,0,0,2 @ F,0,0,1,0,0,0,2 @ F,0,0,1,0,0,0,2 @ F,0,0,1,0,0.84666667,0,2 @ F,0,0,1,0,0.84666667,0,2 @ F,0,0,1,0,0.84666667,0,2 @ F,0,0,1,0,0.84666667,0,2 @ F,0,0,1,0,0,0,2 @ F,0,0,1,0,0,0,2 @ F,0,0,1,0,0.89958333,0,2 @ F,0,0,1,0,0.89958333,0,2 @ F,0,0,1,0,0.89958333,0,2"
       unit="px"
       method="auto"
       mode="F"
       radius="3.2"
       chamfer_steps="1"
       flexible="false"
       use_knot_distance="true"
       apply_no_radius="true"
       apply_with_radius="true"
       only_selected="true"
       hide_knots="false" /><rect
       x="145.40143"
       y="524.26959"
       width="177.62959"
       height="95.560219"
       id="rect506" /><rect
       x="106.42785"
       y="524.64435"
       width="263.44641"
       height="214.72945"
       id="rect394" /></defs><g
     inkscape:groupmode="layer"
     id="layer2"
     inkscape:label="Vrstva 2"
     style="display:inline;fill:#1a1a1a"><path
       style="fill:#1a1a1a;stroke-width:0.245257"
       d="M 48.438274,0.56476193 C 33.794087,0.63590336 19.143945,0.41622332 4.5037248,0.78223597 2.2317491,0.64644085 0.46140875,2.7433576 0.62655521,4.9415472 0.64787041,7.8653447 0.27147762,10.871516 0.87803952,13.746372 1.7485959,15.82119 4.127714,16.70456 6.2509502,16.471237 c 10.9381268,0.216655 21.8795938,0.09879 32.8191728,0.131997 0,1.684546 0,3.369092 0,5.053637 -3.830719,0.137589 -7.715888,-0.287836 -11.514148,0.289327 -2.254467,0.585842 -3.324184,2.954432 -3.159601,5.130758 0.07849,2.690004 -0.211594,5.473206 0.323588,8.09448 0.984551,1.399773 2.437024,2.837612 4.334289,2.417773 3.338785,0.03742 6.677568,0.07487 10.016353,0.112363 0.07465,24.093234 -0.133744,48.189306 0.197103,72.280638 -0.312246,2.26433 1.168513,4.6453 3.477442,5.05007 3.701591,0.25039 7.457902,0.29194 11.155364,-0.0575 2.446655,-0.24102 3.747055,-2.79413 3.518387,-5.04406 0.285025,-20.801804 0.07558,-41.60848 0.142006,-62.41218 8.8e-5,-3.274405 1.74e-4,-6.54881 2.62e-4,-9.823216 1.848049,0 3.696101,0 5.54415,0 0.05614,29.933829 -0.119701,59.868908 0.10299,89.801936 0.248716,2.45989 -0.31724,5.23172 0.961867,7.45926 1.931573,1.95777 4.997665,1.09315 7.449203,1.33077 2.473459,-0.15404 5.052814,0.34475 7.448249,-0.29705 1.298808,-1.12922 2.742776,-2.45332 2.283479,-4.36097 0,-31.31148 0,-62.622952 0,-93.934426 11.781633,-0.09169 23.573314,0.194543 35.348634,-0.218431 2.44345,-0.23294 3.75141,-2.888812 3.54473,-5.134114 -0.11338,-2.896035 0.65724,-6.107533 -0.8105,-8.764108 -1.67115,-2.4211 -4.95808,-1.656091 -7.45537,-1.864905 -18.138812,-0.11002 -36.278338,-0.0313 -54.417432,-0.05644 0,-1.684545 0,-3.369091 0,-5.053637 11.720282,-0.08565 23.452405,0.195505 35.16517,-0.244778 2.088305,-0.365895 3.714099,-2.310387 3.466174,-4.466362 C 96.113502,8.9590601 96.706002,5.8993519 95.865341,3.0465529 95.271954,0.77367527 92.545382,0.869887 90.673396,0.76121118 76.601285,0.3993877 62.514189,0.63204176 48.438274,0.56476193 Z"
       id="path336"
       transform="scale(0.26458634)" /></g><g
     inkscape:label="Vrstva 1"
     inkscape:groupmode="layer"
     id="layer1"
     style="fill:#ffffff"><g
       id="g419"
       transform="translate(-0.93799361,-0.96993828)"
       style="fill:#ffffff"><g
         aria-label="T"
         transform="scale(1.0242895,0.97628648)"
         id="text251"
         style="font-size:42.3627px;font-family:Arial;-inkscape-font-specification:Arial;fill:#ffffff;stroke-width:0.258308"><path
           d="M 11.394712,31.037083 V 5.0852412 H 2.1976493 a 0.79375,0.79375 45 0 1 -0.79375,-0.79375 V 2.3005013 a 0.79375,0.79375 135 0 1 0.79375,-0.79375 H 24.646018 a 0.79375,0.79375 45 0 1 0.79375,0.79375 v 1.9909899 a 0.79375,0.79375 135 0 1 -0.79375,0.79375 H 15.407585 V 31.037083 a 0.79375,0.79375 135 0 1 -0.79375,0.79375 h -2.425373 a 0.79375,0.79375 45 0 1 -0.79375,-0.79375 z"
           id="path215"
           inkscape:path-effect="#path-effect354"
           inkscape:original-d="M 11.394712,31.830833 V 5.0852412 H 1.4038993 V 1.5067513 H 25.439768 V 5.0852412 H 15.407585 V 31.830833 Z"
           style="fill:#ffffff" /></g><g
         aria-label="T"
         id="text305"
         style="font-size:43.3917px;font-family:Arial;-inkscape-font-specification:Arial;fill:#ffffff;stroke-width:0.264583"
         transform="matrix(1,0,0,0.95313491,0,0.33180473)"><path
           d="M 18.002492,37.346909 V 10.745411 H 8.56275 A 0.79375,0.79375 45 0 1 7.769,9.951661 V 7.8737485 a 0.79375,0.79375 135 0 1 0.79375,-0.79375 h 23.032205 a 0.79375,0.79375 45 0 1 0.79375,0.79375 V 9.951661 a 0.79375,0.79375 135 0 1 -0.79375,0.79375 h -9.482116 v 26.601498 a 0.79375,0.79375 135 0 1 -0.79375,0.79375 h -2.522847 a 0.79375,0.79375 45 0 1 -0.79375,-0.79375 z"
           id="path475"
           inkscape:path-effect="#path-effect352"
           inkscape:original-d="M 18.002492,38.140659 V 10.745411 H 7.769 V 7.0799985 H 32.388705 V 10.745411 H 22.112839 v 27.395248 z"
           style="fill:#ffffff" /></g></g></g></svg>
